<mxfile host="65bd71144e" modified="2020-12-06T06:31:30.861Z" agent="5.0 (Windows NT 10.0; Win64; x64) AppleWebKit/537.36 (KHTML, like Gecko) Code/1.51.1 Chrome/83.0.4103.122 Electron/9.3.3 Safari/537.36" version="13.10.0" etag="mLy9f-cfgy0CbJ96tTb7" type="embed">
    <diagram id="dSLV97cO8IRwgXo2o931" name="Page-1">
        <mxGraphModel dx="550" dy="1147" grid="1" gridSize="10" guides="1" tooltips="1" connect="1" arrows="1" fold="1" page="1" pageScale="1" pageWidth="1169" pageHeight="827" math="0" shadow="0">
            <root>
                <mxCell id="0"/>
                <mxCell id="1" parent="0"/>
                <mxCell id="50" value="Editor" style="shape=umlFrame;whiteSpace=wrap;html=1;" vertex="1" parent="1">
                    <mxGeometry x="60" y="-780" width="500" height="350" as="geometry"/>
                </mxCell>
                <mxCell id="40" value="State1" style="html=1;align=center;verticalAlign=top;rounded=1;absoluteArcSize=1;arcSize=10;dashed=1;strokeColor=#FFFFFF;fillColor=#2a2a2a;" vertex="1" parent="1">
                    <mxGeometry x="70" y="90" width="290" height="580" as="geometry"/>
                </mxCell>
                <mxCell id="2" value="Scene" style="html=1;fillColor=#647D64;strokeColor=none;" vertex="1" parent="1">
                    <mxGeometry x="100" y="355" width="230" height="50" as="geometry"/>
                </mxCell>
                <mxCell id="38" value="Module" style="shape=module;align=left;spacingLeft=20;align=center;verticalAlign=top;strokeColor=#FFFFFF;fillColor=#2a2a2a;" vertex="1" parent="1">
                    <mxGeometry x="960" y="60" width="100" height="50" as="geometry"/>
                </mxCell>
                <mxCell id="46" value="DragFrames" style="swimlane;fontStyle=1;align=center;verticalAlign=top;childLayout=stackLayout;horizontal=1;startSize=26;horizontalStack=0;resizeParent=1;resizeParentMax=0;resizeLast=0;collapsible=1;marginBottom=0;strokeColor=#FFFFFF;fillColor=#2a2a2a;" vertex="1" parent="1">
                    <mxGeometry x="110" y="-720" width="160" height="86" as="geometry"/>
                </mxCell>
                <mxCell id="47" value="+ field: type" style="text;strokeColor=none;fillColor=none;align=left;verticalAlign=top;spacingLeft=4;spacingRight=4;overflow=hidden;rotatable=0;points=[[0,0.5],[1,0.5]];portConstraint=eastwest;" vertex="1" parent="46">
                    <mxGeometry y="26" width="160" height="26" as="geometry"/>
                </mxCell>
                <mxCell id="48" value="" style="line;strokeWidth=1;fillColor=none;align=left;verticalAlign=middle;spacingTop=-1;spacingLeft=3;spacingRight=3;rotatable=0;labelPosition=right;points=[];portConstraint=eastwest;" vertex="1" parent="46">
                    <mxGeometry y="52" width="160" height="8" as="geometry"/>
                </mxCell>
                <mxCell id="49" value="+ method(type): type" style="text;strokeColor=none;fillColor=none;align=left;verticalAlign=top;spacingLeft=4;spacingRight=4;overflow=hidden;rotatable=0;points=[[0,0.5],[1,0.5]];portConstraint=eastwest;" vertex="1" parent="46">
                    <mxGeometry y="60" width="160" height="26" as="geometry"/>
                </mxCell>
                <mxCell id="52" value="Camera" style="html=1;fillColor=#647D64;strokeColor=none;" vertex="1" parent="1">
                    <mxGeometry x="100" y="420" width="230" height="50" as="geometry"/>
                </mxCell>
                <mxCell id="53" value="Renderer" style="html=1;fillColor=#647D64;strokeColor=none;" vertex="1" parent="1">
                    <mxGeometry x="100" y="290" width="230" height="50" as="geometry"/>
                </mxCell>
            </root>
        </mxGraphModel>
    </diagram>
</mxfile>
